<svg xmlns="http://www.w3.org/2000/svg" viewBox="0 0 393.52 139.25"><defs><style>.cls-1{fill:#fff;}.cls-2{fill:#023f88;}.cls-3{fill:#d71920;}</style></defs><title>Asset 2</title><g id="Layer_2" data-name="Layer 2"><g id="Layer_1-2" data-name="Layer 1"><rect class="cls-1" x="13.52" y="13.79" width="116.99" height="111.64"/><path class="cls-2" d="M108,0H35.33A35.37,35.37,0,0,0,0,35.34v68.57a35.38,35.38,0,0,0,35.33,35.34H108a35.38,35.38,0,0,0,35.33-35.34V35.34A35.37,35.37,0,0,0,108,0ZM17.85,35.34A17.51,17.51,0,0,1,35.33,17.85H108a17.51,17.51,0,0,1,17.49,17.49v68.57A17.51,17.51,0,0,1,108,121.4H35.33a17.51,17.51,0,0,1-17.48-17.49Z"/><path class="cls-2" d="M57.5,97.14A16.82,16.82,0,1,1,40.68,80.31,16.83,16.83,0,0,1,57.5,97.14"/><path class="cls-2" d="M118.66,43.77A16.82,16.82,0,1,1,101.84,27a16.82,16.82,0,0,1,16.82,16.82"/><path class="cls-3" d="M106.35,96.57H102.9a13.1,13.1,0,0,0-1.41-2.86L61.74,32.34A13,13,0,0,0,50,26.52a8.58,8.58,0,0,0-1.35-.11H33.84a8.7,8.7,0,1,0,0,17.39h4.7A13.12,13.12,0,0,0,40,46.74l39.74,61.37a13.08,13.08,0,0,0,11.34,5.83l.45,0h14.84a8.7,8.7,0,1,0,0-17.39"/><path class="cls-2" d="M182,42.51l-3.53-11-3,11Zm-16.77,10,7.58-27.06h11l9,27.06h-7.92L183.5,48h-9.27l-1.16,4.56Z"/><path class="cls-2" d="M220.3,47.75a6,6,0,0,1-1.13,2.34,5.76,5.76,0,0,1-3.59,2.08,23.78,23.78,0,0,1-5,.5h-3.35c-1.11,0-2.21-.05-3.28-.15a16.27,16.27,0,0,1-3.24-.68A7.07,7.07,0,0,1,198,50.31q-2.78-2.56-2.77-7.36V36a19.51,19.51,0,0,1,.53-4.92,7,7,0,0,1,2-3.38,7.09,7.09,0,0,1,2.45-1.53A10.81,10.81,0,0,1,203,25.5c1-.08,2.16-.12,3.61-.12l3.69,0H211q4.77,0,6.91,1.61A6.16,6.16,0,0,1,220,29.58a9.2,9.2,0,0,1,.61,3.58v1.1H213v-.71a2.28,2.28,0,0,0-.61-1.27c-.44-.56-1.56-.84-3.37-.84H207.6a14.42,14.42,0,0,0-2.2.16,3.53,3.53,0,0,0-1.51.6c-.77.55-1.16,1.86-1.16,3.95v6.51a6.77,6.77,0,0,0,.17,1.64,2.76,2.76,0,0,0,.74,1.24,4,4,0,0,0,2.94,1l2.41,0a7.56,7.56,0,0,0,3.32-.44,2.83,2.83,0,0,0,.9-2.48l0-1.13h-5.44V37.1H220.6v7.63a13,13,0,0,1-.3,3"/><path class="cls-2" d="M231.56,42.87a5.78,5.78,0,0,0,.48,3c.34.48,1.1.71,2.26.71h4.06a2.43,2.43,0,0,0,.86-.13,2.25,2.25,0,0,0,.79-.59,3,3,0,0,0,.5-2V25.48h7.76V44a13.65,13.65,0,0,1-.44,3.76A6.06,6.06,0,0,1,246,50.54a7.53,7.53,0,0,1-3.49,1.7,23.18,23.18,0,0,1-4.73.43h-3.92c-4.07,0-6.85-1-8.33-3a6.16,6.16,0,0,1-1-1.92,11.28,11.28,0,0,1-.44-2c-.06-.59-.1-1-.1-1.29v-19h7.5Z"/><polygon class="cls-2" points="251.51 52.54 251.51 25.48 263.82 25.48 271.4 45.37 271.4 25.48 278.74 25.48 278.74 52.54 266.53 52.54 259.01 32.91 259.01 52.54 251.51 52.54"/><path class="cls-2" d="M307.27,47.75a6.19,6.19,0,0,1-1.13,2.34,5.76,5.76,0,0,1-3.59,2.08,23.85,23.85,0,0,1-5,.5h-3.35c-1.12,0-2.21-.05-3.28-.15a16.27,16.27,0,0,1-3.24-.68A7.15,7.15,0,0,1,285,50.31q-2.77-2.56-2.77-7.36V36a19.51,19.51,0,0,1,.53-4.92,7,7,0,0,1,2.05-3.38,7.09,7.09,0,0,1,2.45-1.53A10.91,10.91,0,0,1,290,25.5c1-.08,2.16-.12,3.61-.12l3.69,0h.65c3.18,0,5.48.54,6.92,1.61A6.29,6.29,0,0,1,307,29.58a9.39,9.39,0,0,1,.61,3.58v1.1H300l0-.71a2.25,2.25,0,0,0-.6-1.27q-.66-.84-3.36-.84h-1.45a14.42,14.42,0,0,0-2.2.16,3.58,3.58,0,0,0-1.51.6c-.77.55-1.16,1.86-1.16,3.95v6.51a6.77,6.77,0,0,0,.17,1.64,2.76,2.76,0,0,0,.74,1.24,4,4,0,0,0,2.93,1l2.41,0a7.61,7.61,0,0,0,3.33-.44,2.83,2.83,0,0,0,.9-2.48V42.53h-5.45V37.1h12.85v7.63a13,13,0,0,1-.3,3"/><path class="cls-2" d="M180.91,70a3.46,3.46,0,0,0,.59-2.36V66.08c0-1.5-.29-2.42-.88-2.77a3.92,3.92,0,0,0-1.83-.3h-5.32v7.65h5.46a2.7,2.7,0,0,0,2-.65m-1.37-13.34a16.82,16.82,0,0,1,3.77.37,8.75,8.75,0,0,1,2.94,1.24,5.6,5.6,0,0,1,2.41,3.15,14.94,14.94,0,0,1,.54,4.1v.6l0,1.64q0,5.12-2.27,7.11a7,7,0,0,1-2,1.26,7.75,7.75,0,0,1-2.1.55,24.74,24.74,0,0,1-2.66.12h-6.59v6.92h-7.58V56.67Z"/><path class="cls-2" d="M200.15,66.2v7.52a4.74,4.74,0,0,0,.51,2.75,3.49,3.49,0,0,0,1.22.86,3.24,3.24,0,0,0,1.33.36h3.33a4.23,4.23,0,0,0,1.18-.19,2.79,2.79,0,0,0,1.9-1.66,4.75,4.75,0,0,0,.18-1.43V66.26a3.27,3.27,0,0,0-1.35-3,3.87,3.87,0,0,0-2-.46h-2.88a6.37,6.37,0,0,0-1.2.08,3.56,3.56,0,0,0-.95.46,3.08,3.08,0,0,0-1.22,2.85m7.5-9.62a12.72,12.72,0,0,1,2,.18,13.66,13.66,0,0,1,2.52.63,6.66,6.66,0,0,1,2.15,1.21,7.32,7.32,0,0,1,2.13,3.14,11,11,0,0,1,.7,3.82v9.89a10.55,10.55,0,0,1-.55,3.38,5.11,5.11,0,0,1-1.72,2.49,10.9,10.9,0,0,1-7.45,2.51h-5.13a14.71,14.71,0,0,1-3.45-.47,7.92,7.92,0,0,1-5.64-5.08,12.47,12.47,0,0,1-.73-4.18V66a12.54,12.54,0,0,1,.65-4,7.7,7.7,0,0,1,2.2-3.34A7.49,7.49,0,0,1,198.7,57a16.72,16.72,0,0,1,3.58-.45Z"/><path class="cls-2" d="M227.86,63.09v14.4h6a3.84,3.84,0,0,0,2.61-.76,2.49,2.49,0,0,0,.81-1.26,7.19,7.19,0,0,0,.19-1.85v-7a3.56,3.56,0,0,0-.83-2.63,2.84,2.84,0,0,0-1.26-.74,7.66,7.66,0,0,0-1.77-.17Zm6.32-6.42q6.33,0,8.93,3.21A8.49,8.49,0,0,1,244.67,63a12.87,12.87,0,0,1,.46,3.28v7.5a18.29,18.29,0,0,1-.29,3.49,8.09,8.09,0,0,1-1.09,2.79,7.14,7.14,0,0,1-2.24,2.16,9.37,9.37,0,0,1-3,1.2,18.31,18.31,0,0,1-3.68.31H220.52V56.67Z"/><path class="cls-2" d="M256.1,66.2v7.52a4.74,4.74,0,0,0,.51,2.75,3.49,3.49,0,0,0,1.22.86,3.24,3.24,0,0,0,1.33.36h3.33a4.23,4.23,0,0,0,1.18-.19,2.79,2.79,0,0,0,1.9-1.66,4.75,4.75,0,0,0,.18-1.43V66.26a3.26,3.26,0,0,0-1.36-3,3.8,3.8,0,0,0-2-.46h-2.88a6.37,6.37,0,0,0-1.2.08,3.43,3.43,0,0,0-.95.46,3.11,3.11,0,0,0-1.22,2.85m7.5-9.62a12.72,12.72,0,0,1,2,.18,13.66,13.66,0,0,1,2.52.63,6.56,6.56,0,0,1,2.15,1.21,7.32,7.32,0,0,1,2.13,3.14,11.28,11.28,0,0,1,.7,3.82v9.89a10.55,10.55,0,0,1-.55,3.38,5.11,5.11,0,0,1-1.72,2.49,10.9,10.9,0,0,1-7.45,2.51h-5.14a14.7,14.7,0,0,1-3.44-.47,7.8,7.8,0,0,1-3.25-1.63,7.9,7.9,0,0,1-2.39-3.45,12.46,12.46,0,0,1-.72-4.18V66a12.53,12.53,0,0,1,.64-4,7.61,7.61,0,0,1,2.2-3.34A7.49,7.49,0,0,1,254.65,57a16.71,16.71,0,0,1,3.57-.45Z"/><polygon class="cls-2" points="288.28 56.67 293.57 73.95 298.38 56.67 310.7 56.67 310.7 83.73 303.37 83.73 303.37 63.84 296.95 83.73 290.39 83.73 283.89 64.27 283.95 83.73 276.47 83.73 276.47 56.67 288.28 56.67"/><path class="cls-2" d="M321.67,66.2v7.52a4.63,4.63,0,0,0,.52,2.75,3.45,3.45,0,0,0,1.21.86,3.28,3.28,0,0,0,1.33.36h3.33a4.3,4.3,0,0,0,1.19-.19,2.92,2.92,0,0,0,1.11-.57,2.75,2.75,0,0,0,.78-1.09,4.42,4.42,0,0,0,.19-1.43V66.26a3.26,3.26,0,0,0-1.36-3,3.87,3.87,0,0,0-2.05-.46H325a6.25,6.25,0,0,0-1.19.08,3.43,3.43,0,0,0-1,.46,3.09,3.09,0,0,0-1.23,2.85m7.5-9.62a12.94,12.94,0,0,1,2,.18,13.77,13.77,0,0,1,2.51.63,6.61,6.61,0,0,1,2.16,1.21A7.32,7.32,0,0,1,338,61.74a11.26,11.26,0,0,1,.69,3.82v9.89a10.28,10.28,0,0,1-.55,3.38,5,5,0,0,1-1.72,2.49,10.89,10.89,0,0,1-7.44,2.51H323.8a14.7,14.7,0,0,1-3.44-.47,7.84,7.84,0,0,1-3.26-1.63,8,8,0,0,1-2.39-3.45A12.46,12.46,0,0,1,314,74.1V66a12.54,12.54,0,0,1,.65-4,7.61,7.61,0,0,1,2.2-3.34A7.45,7.45,0,0,1,320.22,57a16.72,16.72,0,0,1,3.58-.45Z"/><path class="cls-2" d="M357.43,70a2.41,2.41,0,0,0,.68-1.88v-.39c0-.1,0-.2,0-.32V65.6c0-1.12-.19-1.83-.56-2.12a3.43,3.43,0,0,0-2.07-.47h-6v7.48h5.87a3.28,3.28,0,0,0,2.09-.48m-7.8,13.72h-7.58V56.67h14.83A17.59,17.59,0,0,1,360,57,7.44,7.44,0,0,1,363,58.12a5.11,5.11,0,0,1,2.16,2.58,13,13,0,0,1,.47,3.83v3a9,9,0,0,1-.19,2.19,4.34,4.34,0,0,1-.93,1.59,4.52,4.52,0,0,1-1.31,1.1,10.1,10.1,0,0,1-1.9.75c.29.16.61.31.95.47s.63.29.87.42a3.34,3.34,0,0,1,.71.54,5,5,0,0,1,1.33,2,8.33,8.33,0,0,1,.36,2.62v4.47h-7.6V79.09a2.37,2.37,0,0,0-.66-1.68,2.84,2.84,0,0,0-2.18-.85h-5.41Z"/><path class="cls-2" d="M376.54,66.2v7.52a4.63,4.63,0,0,0,.52,2.75,3.45,3.45,0,0,0,1.21.86,3.24,3.24,0,0,0,1.33.36h3.33a4.18,4.18,0,0,0,1.18-.19,2.79,2.79,0,0,0,1.9-1.66,4.42,4.42,0,0,0,.19-1.43V66.26a3.28,3.28,0,0,0-1.36-3,3.87,3.87,0,0,0-2-.46h-2.88a6.37,6.37,0,0,0-1.2.08,3.56,3.56,0,0,0-.95.46,3.11,3.11,0,0,0-1.22,2.85m7.5-9.62a12.94,12.94,0,0,1,2,.18,13.77,13.77,0,0,1,2.51.63,6.71,6.71,0,0,1,2.16,1.21,7.39,7.39,0,0,1,2.12,3.14,11,11,0,0,1,.7,3.82v9.89a10.28,10.28,0,0,1-.55,3.38,5.11,5.11,0,0,1-1.72,2.49,10.9,10.9,0,0,1-7.45,2.51h-5.14a14.7,14.7,0,0,1-3.44-.47,7.92,7.92,0,0,1-5.64-5.08,12.46,12.46,0,0,1-.72-4.18V66a12.53,12.53,0,0,1,.64-4,7.63,7.63,0,0,1,2.21-3.34A7.45,7.45,0,0,1,375.09,57a16.71,16.71,0,0,1,3.57-.45Z"/><polygon class="cls-2" points="173.55 108.93 185.26 108.93 185.26 114.92 166.05 114.92 166.05 87.87 173.55 87.87 173.55 108.93"/><path class="cls-2" d="M218.09,104.89l-3.53-11-2.94,11Zm-16.76,10,7.58-27h11l9,27.05H221l-1.44-4.55h-9.26l-1.17,4.55Z"/><polygon class="cls-2" points="241.02 114.92 241.02 87.87 253.33 87.87 260.91 107.76 260.91 87.87 268.25 87.87 268.25 114.92 256.04 114.92 248.52 95.29 248.52 114.92 241.02 114.92"/><path class="cls-2" d="M289.15,94.28v14.41h6a3.81,3.81,0,0,0,2.6-.77,2.5,2.5,0,0,0,.82-1.26,7.67,7.67,0,0,0,.19-1.85v-7a3.62,3.62,0,0,0-.83-2.63,2.87,2.87,0,0,0-1.26-.73,7.08,7.08,0,0,0-1.77-.18Zm6.33-6.41q6.33,0,8.92,3.2A8.34,8.34,0,0,1,306,94.19a12.92,12.92,0,0,1,.47,3.29V105a18.12,18.12,0,0,1-.3,3.48,7.9,7.9,0,0,1-1.09,2.79,6.83,6.83,0,0,1-2.24,2.16,9.42,9.42,0,0,1-3,1.2,18.45,18.45,0,0,1-3.68.31H281.82v-27Z"/></g></g></svg>